<svg xmlns="http://www.w3.org/2000/svg" width="66" height="66" viewBox="0 0 24 24" class="duoicon duoicon-g-translate" style="color: rgb(99, 102, 241);"><path fill="currentColor" d="m12 22-1-3H4c-.55 0-1.02-.196-1.412-.587A1.927 1.927 0 0 1 2 17V4c0-.55.196-1.021.588-1.413A1.925 1.925 0 0 1 4 2h6l.875 3H20c.583 0 1.063.187 1.438.562.375.375.562.855.562 1.438v13a1.97 1.97 0 0 1-.562 1.413c-.375.391-.855.587-1.438.587h-8Z" class="duoicon-secondary-layer" opacity=".3"></path><path fill="currentColor" d="M13 21h7c.3 0 .542-.096.725-.288A.99.99 0 0 0 21 20V7c0-.3-.092-.542-.275-.725C20.542 6.092 20.3 6 20 6h-8.825l1.175 4.05h1.975V9h1.025v1.05H19v1.025h-1.275a7.985 7.985 0 0 1-.75 1.85A9.76 9.76 0 0 1 15.8 14.6l2.725 2.675L17.8 18l-2.7-2.7-.9.925L15 19l-2 2Z" class="duoicon-primary-layer"></path><path fill="currentColor" d="M15.1 13.825c.467-.55.821-1.075 1.063-1.575.241-.5.404-.892.487-1.175h-3.975l.3 1.05h1c.133.25.292.521.475.813.183.291.4.587.65.887ZM13.85 15.1l.55-.525a15.697 15.697 0 0 1-.637-.825 13.47 13.47 0 0 1-.563-.85l.65 2.2Zm-6.7-.5c1.15 0 2.096-.37 2.838-1.112.741-.742 1.112-1.705 1.112-2.888a4.98 4.98 0 0 0-.012-.363 1.732 1.732 0 0 0-.063-.337h-3.95v1.55H9.3a1.908 1.908 0 0 1-.763 1.087c-.375.259-.829.388-1.362.388-.65 0-1.208-.233-1.675-.7-.467-.467-.7-1.042-.7-1.725s.233-1.258.7-1.725a2.285 2.285 0 0 1 1.675-.7c.3 0 .583.054.85.162.267.109.508.271.725.488L9.975 7.55c-.35-.367-.77-.65-1.262-.85a4.11 4.11 0 0 0-1.563-.3c-1.117 0-2.07.396-2.862 1.187C3.496 8.379 3.1 9.35 3.1 10.5s.396 2.12 1.188 2.912c.791.792 1.745 1.188 2.862 1.188Z" class="duoicon-primary-layer"></path></svg>